<?xml version="1.0" encoding="utf-8"?>
<!-- Generator: Adobe Illustrator 28.0.0, SVG Export Plug-In . SVG Version: 6.00 Build 0)  -->
<svg version="1.1" id="Layer_1" xmlns="http://www.w3.org/2000/svg" xmlns:xlink="http://www.w3.org/1999/xlink" x="0px" y="0px"
	 viewBox="0 0 1049 218" style="enable-background:new 0 0 1049 218;" xml:space="preserve">
<style type="text/css">
	.st0{fill:#FFFFFF;}
	.st1{fill:#176AEA;}
	.st2{fill:url(#SVGID_1_);}
	.st3{fill:url(#SVGID_00000015323598823744844180000001995547128740031641_);}
	.st4{fill:url(#SVGID_00000011729187919575281260000006761253944039363493_);}
	.st5{fill:none;stroke:#2B4FFF;stroke-width:5;stroke-miterlimit:10;}
	.st6{fill:url(#SVGID_00000134229876283833680090000017020047844996320149_);}
	.st7{fill:url(#SVGID_00000058570610860437678920000011847911209096610201_);}
	.st8{fill:url(#SVGID_00000137846273555410880980000015603581082750108036_);}
	.st9{fill:url(#SVGID_00000179638101895907232450000011915778943231723926_);}
	.st10{fill:url(#SVGID_00000137113771533666781680000010281126559404744636_);}
	.st11{fill:url(#SVGID_00000087389512025520978640000011749462980719832731_);}
	.st12{opacity:0.2;}
	.st13{fill:url(#SVGID_00000029740505120050772040000005934874726270457494_);}
	.st14{fill:url(#SVGID_00000150060344319364454290000012226099591090629548_);}
	.st15{fill:url(#SVGID_00000039812290892891898520000000509746267272137131_);}
	.st16{fill:url(#SVGID_00000012462878936012704580000007565630250597047710_);}
	.st17{fill:url(#SVGID_00000032625712751670038270000011759767599007499166_);}
	.st18{fill:url(#SVGID_00000131352491923395461970000013515837548872307849_);}
	.st19{fill:url(#SVGID_00000114782542582266515310000004255658066419904656_);}
	.st20{fill:url(#SVGID_00000117668991866452772310000003693349596479303046_);}
	.st21{fill:url(#SVGID_00000075146955520424634870000002444679337219721614_);}
	.st22{fill:url(#SVGID_00000132055809455863134580000004767244102348689057_);}
	.st23{fill:url(#SVGID_00000090272615175563571120000009698468099960811965_);}
</style>
<g>
	<g>
		<g>
			<polygon class="st1" points="251.77,168.52 220.38,137.31 158.9,199.15 100.64,199.32 191.16,108.27 158.54,75.84 188.8,45.4 
				251.59,107.82 			"/>
			<linearGradient id="SVGID_1_" gradientUnits="userSpaceOnUse" x1="141.0677" y1="6.6538" x2="141.0677" y2="153.9135">
				<stop  offset="0" style="stop-color:#37DAA5"/>
				<stop  offset="0.3555" style="stop-color:#37DAC2"/>
				<stop  offset="1" style="stop-color:#37DAFF"/>
			</linearGradient>
			<polygon class="st2" points="65.5,49.48 96.89,80.69 158.37,18.85 216.63,18.68 126.11,109.73 158.73,142.16 128.47,172.6 
				65.68,110.18 			"/>
		</g>
		<g>
			<g>
				<path d="M315.18,90.49h-20.17V76.31h57.53v14.19h-20.46v60.56h-16.9V90.49z"/>
				<path d="M405.93,119.43h-27.5v17.78h30.75v13.84h-47.65V76.31h46.05v13.84h-29.15v15.57h27.5V119.43z"/>
				<path d="M435.17,90.49H415V76.31h57.53v14.19h-20.46v60.56h-16.9V90.49z"/>
				<path d="M481.51,77.33c5.43-0.92,13.47-1.61,22.46-1.61c11.09,0,18.85,1.69,24.19,5.92c4.46,3.54,6.92,8.8,6.92,15.67
					c0,9.47-6.77,16.07-13.2,18.37v0.35c5.19,2.09,8.1,7.05,9.99,13.92c2.31,8.46,4.57,18.2,6.03,21.1h-17.3
					c-1.15-2.16-3.01-8.17-5.14-17.42c-2.08-9.34-5.22-11.84-12.18-11.93h-5.03v29.35h-16.75V77.33z M498.26,109.48h6.62
					c8.38,0,13.4-4.27,13.4-10.77c0-6.84-4.69-10.34-12.41-10.38c-4.05,0-6.42,0.26-7.61,0.57V109.48z"/>
				<path d="M564.6,131.86l-5.28,19.19h-17.48l22.81-74.75h22.12l23.27,74.75h-18.21l-5.75-19.19H564.6z M583.59,119.27l-4.66-15.88
					c-1.28-4.42-2.61-10.02-3.76-14.39h-0.23c-1.1,4.4-2.22,10.07-3.42,14.41l-4.47,15.87H583.59z"/>
				<path d="M654.28,76.31v74.75h-9.7V76.31H654.28z"/>
				<path d="M671.08,151.05V76.31h10.61l23.94,37.78c5.46,8.77,9.8,16.62,13.34,24.34l0.25-0.12c-0.88-9.98-1.05-19.09-1.05-30.67
					V76.31h9.09v74.75h-9.81l-23.76-37.89c-5.15-8.38-10.17-16.9-13.91-25.03l-0.33,0.12c0.58,9.47,0.71,18.48,0.71,30.84v31.96
					H671.08z"/>
				<path d="M758.31,84.46h-22.77v-8.16h55.35v8.16h-22.88v66.59h-9.7V84.46z"/>
				<path d="M837.84,116.01h-28.98v27h32.41v8.04h-42.12V76.31h40.41v8.04h-30.7v23.67h28.98V116.01z"/>
				<path d="M905.97,148.66c-3.49,1.75-10.65,3.56-19.76,3.56c-21.05,0-36.85-13.32-36.85-37.86c0-23.46,15.82-39.22,39.02-39.22
					c9.24,0,15.19,1.96,17.74,3.29l-2.38,7.86c-3.63-1.73-8.82-3.08-15.04-3.08c-17.55,0-29.15,11.21-29.15,30.84
					c0,18.29,10.54,29.97,28.64,29.97c5.94,0,11.92-1.19,15.83-3.06L905.97,148.66z"/>
				<path d="M927.75,76.31v31.31h36.13V76.31h9.71v74.75h-9.71v-35.07h-36.13v35.07h-9.7V76.31H927.75z"/>
			</g>
		</g>
	</g>
</g>
</svg>
